---
title: <Relations>
---
classDiagram

    class EntityInterface {
        <<Interface>>
        +getId() ?int
        +getDisplay() string
        +isNew() bool
    }

    class AbstractEntity {
        <<Abstract>>
    }

    class AbstractCategoryItemEntity {
        <<Abstract>>
    }

    class AbstractCodeEntity {
        <<Abstract>>
    }

    class AbstractProperty {
        <<Abstract>>
    }

    class AbstractMargin {
        <<Abstract>>
    }

    EntityInterface <|.. AbstractEntity

    AbstractEntity <|-- AbstractCategoryItemEntity
    AbstractEntity <|-- AbstractMargin
    AbstractEntity <|-- User
    AbstractEntity <|-- AbstractCodeEntity
    AbstractEntity <|-- TaskItem
    AbstractEntity <|-- TaskItemMargin
    AbstractEntity <|-- AbstractProperty
    AbstractEntity <|-- Calculation
    AbstractEntity <|-- Log

    AbstractCodeEntity <|-- Group
    AbstractCodeEntity <|-- Category
    AbstractCodeEntity <|-- CalculationState

    AbstractProperty <|-- GlobalProperty
    AbstractProperty <|-- UserProperty

    AbstractMargin <|-- GroupMargin
    AbstractMargin <|-- GlobalMargin

    AbstractCategoryItemEntity <|-- Product
    AbstractCategoryItemEntity <|-- Task

    User "0" --* "*" UserProperty
    Group "0" --* "*" GroupMargin
    Group "0" --> "*" Category
    Category "0" --> "*" Product
    Category "0" --> "*" Task
    Task "0" --* "*" TaskItem
    TaskItem "0" --* "*" TaskItemMargin

    Calculation "0" --* "*" CalculationGroup
    CalculationGroup "0" --* "*" CalculationCategory
    CalculationCategory "0" --* "*" CalculationItem
    CalculationState "1" <--> "1" Calculation
    CalculationGroup "1" <--> "1" Group
    CalculationCategory "1" <--> "1" Category

    click AbstractEntity call nodeCallback()
    click AbstractMargin call nodeCallback()
    click AbstractProperty call nodeCallback()
    click Calculation call nodeCallback()
    click CalculationState call nodeCallback()
    click AbstractCodeEntity call nodeCallback()
    click Category call nodeCallback()
    click Group call nodeCallback()
    click Product call nodeCallback()
    click Task call nodeCallback()
    click User call nodeCallback()
    click GlobalMargin call nodeCallback()
    click AbstractCategoryItemEntity call nodeCallback()
    click Log call nodeCallback()
